<?xml version="1.0" encoding="UTF-8"?>
<svg id="Layer_1" xmlns="http://www.w3.org/2000/svg" version="1.1" xmlns:xlink="http://www.w3.org/1999/xlink" viewBox="0 0 160.5 207.5">
  <!-- Generator: Adobe Illustrator 29.0.1, SVG Export Plug-In . SVG Version: 2.1.0 Build 192)  -->
  <defs>
    <style>
      .st0 {
        fill: #fff;
      }

      .st1 {
        fill: none;
        stroke: #fff;
        stroke-miterlimit: 10;
      }

      .st2 {
        fill: url(#linear-gradient);
      }
    </style>
    <linearGradient id="linear-gradient" x1="83.7" y1="34.2" x2="83.7" y2="146.5" gradientUnits="userSpaceOnUse">
      <stop offset="0" stop-color="#be1e2d"/>
      <stop offset=".4" stop-color="#ba1d2b"/>
      <stop offset=".7" stop-color="#b01a28"/>
      <stop offset=".9" stop-color="#a01522"/>
      <stop offset="1" stop-color="#991320"/>
    </linearGradient>
  </defs>
  <g id="Group_68">
    <g id="Group_66">
      <g id="Group_38">
        <path id="Path_142" class="st0" d="M.6,180.8l5.5-22.7h15.2l-1.5,6.1h-7l-.6,2.6h6.3l-1.4,5.8h-6.3l-2,8.1H.6Z"/>
        <path id="Path_143" class="st0" d="M19.3,180.8l5.5-22.7h8.2l-3.7,15.3h7.9l-1.8,7.3h-16.1Z"/>
        <path id="Path_144" class="st0" d="M40.9,170.5l3-12.3h8.1l-3,12.3c-.3,1-.4,2-.2,3,.2.5.7.8,1.6.8.7,0,1.5-.3,1.9-.8.6-.9,1.1-1.9,1.2-2.9l3-12.3h8.1l-3,12.3c-.3,1.4-.7,2.7-1.3,4-.4.9-1,1.8-1.7,2.6-1.2,1.4-2.8,2.5-4.5,3.2-1.8.8-3.7,1.1-5.6,1.1-1.8,0-3.5-.3-5.1-1.1-1.3-.7-2.4-1.9-2.9-3.2-.3-.8-.4-1.7-.4-2.6,0-1.4.3-2.7.7-4Z"/>
        <path id="Path_145" class="st0" d="M90.4,169.6c-.4,1.6-1.1,3.2-2,4.6-1.9,2.9-4.8,5.2-8.1,6.4-1.6.6-3.3.9-4.9.9-1.6,0-3.1-.3-4.5-.9-1.3-.6-2.4-1.4-3.3-2.6-.9-1.1-1.4-2.4-1.6-3.8-.2-1.6-.1-3.1.3-4.7.4-1.7,1.1-3.2,2-4.7.9-1.4,2.1-2.7,3.5-3.8,1.4-1.1,2.9-1.9,4.5-2.5,1.6-.6,3.3-.9,5-.9,1.6,0,3.1.3,4.6.9,2.6,1.1,4.5,3.5,4.9,6.4.2,1.6.1,3.1-.3,4.6ZM77.3,173.8c1.1,0,2.2-.4,3.1-1.2.9-.8,1.5-1.9,1.8-3.1.3-1,.2-2.2-.3-3.1-.5-.8-1.5-1.3-2.5-1.2-1.1,0-2.2.4-3.1,1.2-.9.8-1.6,1.9-1.8,3.1-.3,1-.2,2.2.3,3.1.6.8,1.5,1.2,2.5,1.2Z"/>
        <path id="Path_146" class="st0" d="M91.9,180.8l5.5-22.7h10.2c3,0,5.1.7,6.3,2s1.6,3.2,1,5.7c-.3,1.5-1.1,2.9-2.2,4-1,1-2.3,1.6-3.6,1.8l3.8,9.2h-9.1l-2.1-7.5-1.8,7.5h-8ZM104,164l-1.1,4.4h1.3c.7,0,1.4-.2,1.9-.6.5-.4.9-1,1-1.6.2-.6.1-1.2-.2-1.7-.4-.4-1-.6-1.6-.6h-1.3Z"/>
        <path id="Path_147" class="st0" d="M115.3,180.8l5.5-22.7h15.2l-1.5,6.1h-7.2l-.5,2.2h6.5l-1.4,5.8h-6.5l-.6,2.4h7.3l-1.5,6.1h-15.3Z"/>
        <path id="Path_148" class="st0" d="M131.8,180.8l14-15.9h-7.9l1.7-6.8h20.9l-13.7,15.7h8.7l-1.7,7h-22Z"/>
      </g>
    </g>
    <g id="Group_67">
      <path id="Path_149" class="st0" d="M80.5,0C39.6,0,6.5,33.1,6.5,74c0,24,11.6,46.5,31.2,60.4l17.9-100.2h74.2l-4.5,24.6h-44.3l-3.8,20.6h43.3l-4.3,23.3h-43.5l-7.4,43.8c40,8.4,79.3-17.2,87.7-57.3C161.4,49.3,135.8,10,95.8,1.6,90.7.5,85.6,0,80.5,0h0Z"/>
      <path id="Path_150" class="st2" d="M116.2,102.7l4.3-23.3h-43.3l3.8-20.6h44.3l4.5-24.6H55.6l-17.9,100.2c8.3,5.9,17.7,10,27.7,12.1l7.4-43.8h43.5Z"/>
    </g>
    <g id="Group_65">
      <path id="Path_151" class="st0" d="M2.5,207.1l3.1-12.2H1.5l.7-2.6h11.3l-.7,2.6h-3.9l-3.1,12.2h-3.3Z"/>
      <path id="Path_152" class="st0" d="M11.9,207.1l3.8-14.8h9.5l-.7,2.6h-6.2l-.8,3.3h6.2l-.7,2.5h-6.2l-.9,3.7h6.2l-.7,2.6h-9.5Z"/>
      <path id="Path_153" class="st0" d="M37.5,206.6c-.7.3-1.5.5-2.2.7-.8.2-1.7.2-2.5.2-2,.1-4-.6-5.4-1.9-1.3-1.4-1.9-3.2-1.6-5.1.1-1.1.5-2.2,1-3.2.5-1,1.2-1.9,2-2.7.9-.9,2-1.6,3.2-2,1.2-.5,2.6-.7,3.9-.7.9,0,1.8.1,2.7.3.8.2,1.6.6,2.3,1l-.8,2.9c-.7-.5-1.4-.9-2.2-1.2-.7-.3-1.5-.4-2.3-.4-3.3,0-6.1,2.4-6.4,5.7-.2,1.2.1,2.4.9,3.3.9.9,2.1,1.3,3.3,1.2.9,0,1.8-.1,2.6-.3.8-.2,1.6-.6,2.3-1.1l-.7,3.2Z"/>
      <path id="Path_154" class="st0" d="M40.5,207.1l3.8-14.8h3.3l-1.5,5.8h6.5l1.5-5.8h3.3l-3.8,14.8h-3.3l1.7-6.4h-6.5l-1.7,6.4h-3.4Z"/>
      <path id="Path_155" class="st0" d="M57.2,207.1l3.8-14.8h3.5l4.1,7.6c.4.8.7,1.5.9,1.9.2.4.3.8.4,1.2.1-.7.2-1.3.3-1.9s.2-1,.3-1.3l2-7.6h3.1l-3.8,14.8h-3.2l-4.5-8.6c-.2-.5-.5-.9-.7-1.4-.2-.4-.3-.8-.4-1.1v.5c-.1.5-.2,1-.3,1.5s-.2.9-.3,1.3l-2.1,7.9h-3.1Z"/>
      <path id="Path_156" class="st0" d="M83.5,207.5c-2,.1-4-.6-5.5-1.9-1.3-1.4-1.9-3.3-1.6-5.2.1-1.1.5-2.1,1-3.1.5-1,1.2-1.9,2-2.7.9-.9,2-1.6,3.2-2,1.2-.5,2.5-.7,3.8-.7,2-.1,4,.6,5.5,1.9,1.3,1.3,1.9,3.2,1.6,5.1-.1,1.1-.4,2.1-.9,3.1-.5,1-1.1,1.8-1.9,2.6-1,.9-2.1,1.7-3.3,2.2-1.3.5-2.6.7-3.9.7ZM86,194.6c-1.5,0-3,.6-4.1,1.6-1.2,1.1-1.9,2.5-2,4.1-.2,1.2.1,2.4.9,3.3.9.9,2,1.3,3.3,1.2,1.5,0,3-.6,4.1-1.6,1.2-1.1,1.9-2.5,2-4.1.2-1.2-.1-2.4-.9-3.3-.9-.8-2.1-1.3-3.3-1.2Z"/>
      <path id="Path_157" class="st0" d="M94.4,207.1l3.8-14.8h3.3l-3.1,12.2h5.6l-.7,2.6h-8.9Z"/>
      <path id="Path_158" class="st0" d="M112.2,207.5c-2,.1-4-.6-5.5-1.9-1.3-1.4-1.9-3.3-1.6-5.2.1-1.1.5-2.1,1-3.1.5-1,1.2-1.9,2-2.7.9-.9,2-1.6,3.2-2,1.2-.5,2.5-.7,3.8-.7,2-.1,4,.6,5.5,1.9,1.3,1.3,1.9,3.2,1.6,5.1-.1,1.1-.4,2.1-.9,3.1-.5,1-1.1,1.8-1.9,2.6-1,.9-2.1,1.7-3.3,2.2-1.3.5-2.6.7-3.9.7ZM114.7,194.6c-1.5,0-3,.6-4.1,1.6-1.2,1.1-1.9,2.5-2,4.1-.2,1.2.1,2.4.9,3.3.9.9,2,1.3,3.3,1.2,1.5,0,3-.6,4.1-1.6,1.2-1.1,1.9-2.5,2-4.1.2-1.2-.1-2.4-.9-3.3-.9-.8-2.1-1.3-3.3-1.2Z"/>
      <path id="Path_159" class="st0" d="M137.6,196.8c-.4-.7-.9-1.3-1.6-1.7-.7-.4-1.5-.6-2.3-.6-1.5,0-3,.6-4.2,1.6-1.2,1.1-1.9,2.5-2,4.1-.2,1.2.1,2.4.9,3.3.9.9,2.1,1.3,3.3,1.2.9,0,1.9-.2,2.7-.8.8-.5,1.4-1.2,1.8-2.1h-3.8l.7-2.6h7.2c-.3,2.3-1.4,4.4-3.1,6-1.7,1.4-3.8,2.2-6.1,2.1-2,.1-4-.6-5.6-1.9-1.3-1.4-1.9-3.3-1.6-5.2.1-1.1.5-2.2,1-3.1.5-1,1.2-1.9,2.1-2.7.9-.8,1.9-1.5,3.1-1.9,1.2-.4,2.5-.7,3.8-.7,1.3,0,2.7.2,3.9.8,1,.5,1.9,1.3,2.4,2.3l-2.8,1.7Z"/>
      <path id="Path_160" class="st0" d="M143.3,207.1l1.9-6.8-3.1-8h3.7l1.1,3.7c.1.3.2.6.2,1,0,.3.1.7.2,1,.4-.6.8-1.2,1.3-1.8l.2-.3,2.9-3.7h3.9l-7.1,8-1.9,6.8h-3.3Z"/>
    </g>
    <line id="Line_4" class="st1" y1="186.2" x2="160.1" y2="186.2"/>
  </g>
</svg>