<svg xmlns="http://www.w3.org/2000/svg" width="160.47" height="207.49" viewBox="0 0 160.47 207.49">
    <g id="Group_68" data-name="Group 68" transform="translate(-3004.047 64.91)">
      <g id="Group_66" data-name="Group 66" transform="translate(1389.307 -495.97)">
        <g id="Group_38" data-name="Group 38">
          <path id="Path_142" data-name="Path 142" d="M1615.32,611.9l5.54-22.65h15.15l-1.5,6.14h-6.99l-.64,2.63h6.33l-1.42,5.8h-6.33l-1.98,8.08Z" fill="#fff"/>
          <path id="Path_143" data-name="Path 143" d="M1634.04,611.9l5.54-22.65h8.15l-3.74,15.3h7.92l-1.8,7.35h-16.07Z" fill="#fff"/>
          <path id="Path_144" data-name="Path 144" d="M1655.69,601.54l3-12.28h8.14l-3.02,12.35a5.7,5.7,0,0,0-.21,2.96c.21.54.72.81,1.55.81a2.449,2.449,0,0,0,1.95-.84,7.315,7.315,0,0,0,1.25-2.94l3.02-12.35h8.14l-3,12.28a23.3,23.3,0,0,1-1.29,3.98,10.064,10.064,0,0,1-1.65,2.61,12.6,12.6,0,0,1-4.51,3.25,14.168,14.168,0,0,1-5.64,1.13,10.634,10.634,0,0,1-5.11-1.13,6.251,6.251,0,0,1-2.92-3.25,6.078,6.078,0,0,1-.36-2.58A21.152,21.152,0,0,1,1655.69,601.54Z" fill="#fff"/>
          <path id="Path_145" data-name="Path 145" d="M1705.16,600.62a14.73,14.73,0,0,1-2.02,4.63,16.455,16.455,0,0,1-8.06,6.37,14.343,14.343,0,0,1-4.94.88,11.063,11.063,0,0,1-4.53-.88,8.362,8.362,0,0,1-3.3-2.57,8.061,8.061,0,0,1-1.63-3.77,11.732,11.732,0,0,1,.27-4.66,15.054,15.054,0,0,1,2.01-4.67,15.621,15.621,0,0,1,3.48-3.79,16.352,16.352,0,0,1,4.54-2.55,14.669,14.669,0,0,1,4.98-.87,11.293,11.293,0,0,1,4.55.87,8.169,8.169,0,0,1,4.92,6.36A11.667,11.667,0,0,1,1705.16,600.62ZM1692,604.89a4.5,4.5,0,0,0,3.05-1.17,5.791,5.791,0,0,0,1.8-3.1,3.9,3.9,0,0,0-.28-3.13,2.7,2.7,0,0,0-2.47-1.18,4.5,4.5,0,0,0-3.06,1.19,5.941,5.941,0,0,0-1.82,3.13,3.825,3.825,0,0,0,.29,3.1A2.768,2.768,0,0,0,1692,604.89Z" fill="#fff"/>
          <path id="Path_146" data-name="Path 146" d="M1706.62,611.9l5.54-22.65h10.24c2.97,0,5.08.66,6.33,1.96s1.57,3.2.97,5.66a8.22,8.22,0,0,1-2.16,3.98,6.179,6.179,0,0,1-3.64,1.83l3.79,9.22h-9.13l-2.13-7.47-1.83,7.47h-7.98Zm12.09-16.81-1.08,4.43h1.27a3.166,3.166,0,0,0,1.92-.56,2.749,2.749,0,0,0,1.02-1.62,1.808,1.808,0,0,0-.22-1.66,2.017,2.017,0,0,0-1.64-.58h-1.27Z" fill="#fff"/>
          <path id="Path_147" data-name="Path 147" d="M1730.09,611.9l5.54-22.65h15.15l-1.5,6.14h-7.16l-.53,2.18h6.5l-1.42,5.8h-6.5l-.58,2.38h7.35l-1.5,6.14h-15.35Z" fill="#fff"/>
          <path id="Path_148" data-name="Path 148" d="M1746.57,611.9l14.02-15.9h-7.92l1.65-6.75h20.89l-13.69,15.67h8.74l-1.71,6.98h-21.98Z" fill="#fff"/>
        </g>
      </g>
      <g id="Group_67" data-name="Group 67" transform="translate(1389.307 -495.97)">
        <path id="Path_149" data-name="Path 149" d="M1695.26,431.06a74.044,74.044,0,0,0-42.88,134.42l17.95-100.21h74.15L1740,489.86h-44.29l-3.76,20.58h43.3l-4.28,23.33h-43.5l-7.43,43.83a74.061,74.061,0,1,0,15.22-146.54Z" fill="#fff"/>
        <path id="Path_150" data-name="Path 150" d="M1730.96,533.78l4.28-23.33h-43.3l3.76-20.58h44.29l4.48-24.59h-74.15l-17.95,100.21a73.689,73.689,0,0,0,27.66,12.12l7.43-43.83Z" fill="#be1e2d"/>
      </g>
      <g id="Group_65" data-name="Group 65" transform="translate(1389.307 -495.97)">
        <path id="Path_151" data-name="Path 151" d="M1617.29,638.15l3.14-12.22h-4.15l.67-2.59h11.34l-.66,2.59h-3.87l-3.13,12.22Z" fill="#fff"/>
        <path id="Path_152" data-name="Path 152" d="M1626.65,638.15l3.8-14.81h9.5l-.65,2.61h-6.2l-.85,3.33h6.18l-.65,2.55h-6.19l-.95,3.71h6.2l-.68,2.61Z" fill="#fff"/>
        <path id="Path_153" data-name="Path 153" d="M1652.25,637.62a10.92,10.92,0,0,1-2.25.7,13.459,13.459,0,0,1-2.51.23,7.337,7.337,0,0,1-5.44-1.94,5.905,5.905,0,0,1-1.56-5.1,9.28,9.28,0,0,1,.96-3.15,9.735,9.735,0,0,1,2.03-2.68,9.631,9.631,0,0,1,3.23-2,10.852,10.852,0,0,1,3.88-.69,10.511,10.511,0,0,1,2.7.33,8.115,8.115,0,0,1,2.29,1.01l-.8,2.9a8.621,8.621,0,0,0-2.22-1.19,6.72,6.72,0,0,0-2.27-.38,6.29,6.29,0,0,0-6.38,5.7,3.912,3.912,0,0,0,.89,3.27,4.235,4.235,0,0,0,3.27,1.21,9.623,9.623,0,0,0,2.61-.35,8.269,8.269,0,0,0,2.32-1.07Z" fill="#fff"/>
        <path id="Path_154" data-name="Path 154" d="M1655.2,638.15l3.81-14.81h3.35l-1.49,5.76h6.53l1.49-5.76h3.33l-3.79,14.81h-3.35l1.65-6.42h-6.51l-1.65,6.42Z" fill="#fff"/>
        <path id="Path_155" data-name="Path 155" d="M1671.93,638.15l3.8-14.81h3.48l4.07,7.64c.44.84.74,1.47.92,1.89a9.5,9.5,0,0,1,.41,1.2c.11-.7.22-1.32.32-1.86s.2-.96.28-1.27l1.97-7.61h3.14l-3.82,14.81h-3.24l-4.52-8.62a15.275,15.275,0,0,1-.67-1.39,9.2,9.2,0,0,1-.4-1.14l-.05.48c-.06.51-.13.99-.21,1.47s-.18.92-.28,1.34l-2.09,7.87Z" fill="#fff"/>
        <path id="Path_156" data-name="Path 156" d="M1698.21,638.55a7.48,7.48,0,0,1-5.53-1.94,5.956,5.956,0,0,1-1.57-5.17,8.816,8.816,0,0,1,.96-3.08,9.973,9.973,0,0,1,2.04-2.68,9.837,9.837,0,0,1,3.24-2,10.768,10.768,0,0,1,3.85-.69,7.528,7.528,0,0,1,5.53,1.92,5.834,5.834,0,0,1,1.58,5.08,9.412,9.412,0,0,1-.91,3.1,9.046,9.046,0,0,1-1.89,2.57,10.272,10.272,0,0,1-3.35,2.15A10.589,10.589,0,0,1,1698.21,638.55Zm2.5-12.87a5.938,5.938,0,0,0-4.14,1.61,6.34,6.34,0,0,0-2.04,4.06,3.894,3.894,0,0,0,.9,3.28,4.231,4.231,0,0,0,3.26,1.22,5.912,5.912,0,0,0,4.14-1.64,6.318,6.318,0,0,0,2.04-4.07,3.88,3.88,0,0,0-.89-3.26A4.267,4.267,0,0,0,1700.71,625.68Z" fill="#fff"/>
        <path id="Path_157" data-name="Path 157" d="M1709.1,638.15l3.8-14.81h3.35l-3.14,12.18h5.55l-.67,2.63Z" fill="#fff"/>
        <path id="Path_158" data-name="Path 158" d="M1726.95,638.55a7.48,7.48,0,0,1-5.53-1.94,5.956,5.956,0,0,1-1.57-5.17,8.816,8.816,0,0,1,.96-3.08,9.973,9.973,0,0,1,2.04-2.68,9.837,9.837,0,0,1,3.24-2,10.768,10.768,0,0,1,3.85-.69,7.528,7.528,0,0,1,5.53,1.92,5.834,5.834,0,0,1,1.58,5.08,9.412,9.412,0,0,1-.91,3.1,9.046,9.046,0,0,1-1.89,2.57,10.272,10.272,0,0,1-3.35,2.15A10.589,10.589,0,0,1,1726.95,638.55Zm2.5-12.87a5.938,5.938,0,0,0-4.14,1.61,6.34,6.34,0,0,0-2.04,4.06,3.894,3.894,0,0,0,.9,3.28,4.246,4.246,0,0,0,3.26,1.22,5.912,5.912,0,0,0,4.14-1.64,6.318,6.318,0,0,0,2.04-4.07,3.88,3.88,0,0,0-.89-3.26A4.267,4.267,0,0,0,1729.45,625.68Z" fill="#fff"/>
        <path id="Path_159" data-name="Path 159" d="M1752.37,627.86a4.125,4.125,0,0,0-1.57-1.66,4.53,4.53,0,0,0-2.29-.58,5.892,5.892,0,0,0-4.15,1.63,6.44,6.44,0,0,0-2.04,4.12,3.886,3.886,0,0,0,.91,3.27,4.334,4.334,0,0,0,3.3,1.21,4.946,4.946,0,0,0,2.68-.75,5.01,5.01,0,0,0,1.85-2.11h-3.79l.66-2.59h7.25a10.088,10.088,0,0,1-3.09,6.01,8.766,8.766,0,0,1-6.05,2.13,7.522,7.522,0,0,1-5.56-1.94,5.974,5.974,0,0,1-1.56-5.19,8.9,8.9,0,0,1,.98-3.13,10.159,10.159,0,0,1,2.07-2.73,8.874,8.874,0,0,1,3.07-1.9,11.061,11.061,0,0,1,3.82-.65,8.741,8.741,0,0,1,3.9.78,5.442,5.442,0,0,1,2.42,2.35Z" fill="#fff"/>
        <path id="Path_160" data-name="Path 160" d="M1758.09,638.15l1.94-6.8-3.12-8.01h3.69l1.13,3.72a7.477,7.477,0,0,1,.24.96c.06.33.11.68.15,1.04a14.891,14.891,0,0,1,1.29-1.8l.2-.26,2.95-3.66h3.93l-7.11,7.99-1.95,6.82Z" fill="#fff"/>
      </g>
      <line id="Line_4" data-name="Line 4" x2="160.12" transform="translate(3004.047 121.3)" fill="none" stroke="#fff" stroke-miterlimit="10" stroke-width="1"/>
    </g>
  </svg>
  